<mxfile host="app.diagrams.net" modified="2023-05-01T19:14:58.268Z" agent="Mozilla/5.0 (Macintosh; Intel Mac OS X 10.15; rv:109.0) Gecko/20100101 Firefox/112.0" etag="8BlcfAyYeBEsNqf3H4J8" version="21.2.3" type="device">
  <diagram name="Page-1" id="KU7AiXIiytjYNTm-zGmN">
    <mxGraphModel dx="975" dy="658" grid="1" gridSize="10" guides="1" tooltips="1" connect="1" arrows="1" fold="1" page="1" pageScale="1" pageWidth="850" pageHeight="1100" math="0" shadow="0">
      <root>
        <mxCell id="0" />
        <mxCell id="1" parent="0" />
        <mxCell id="mEDoyyuJvPCOOAeOS8k_-1" value="&lt;div&gt;Keeper&lt;/div&gt;&lt;div&gt;(service)&lt;br&gt;&lt;/div&gt;" style="whiteSpace=wrap;html=1;aspect=fixed;fontSize=16;fillColor=#d5e8d4;strokeColor=#82b366;rounded=1;" parent="1" vertex="1">
          <mxGeometry x="370" y="240" width="160" height="160" as="geometry" />
        </mxCell>
        <mxCell id="mEDoyyuJvPCOOAeOS8k_-2" value="Postgres&lt;br&gt;(users, secrets)" style="shape=cylinder3;whiteSpace=wrap;html=1;boundedLbl=1;backgroundOutline=1;size=15;fontSize=16;fillColor=#dae8fc;strokeColor=#6c8ebf;rounded=1;" parent="1" vertex="1">
          <mxGeometry x="640" y="260" width="120" height="120" as="geometry" />
        </mxCell>
        <mxCell id="mEDoyyuJvPCOOAeOS8k_-3" value="keepctl&lt;br style=&quot;font-size: 16px;&quot;&gt;(Windows client)" style="ellipse;whiteSpace=wrap;html=1;fontSize=16;fillColor=#e1d5e7;strokeColor=#9673a6;rounded=1;" parent="1" vertex="1">
          <mxGeometry x="120" y="160" width="130" height="80" as="geometry" />
        </mxCell>
        <mxCell id="mEDoyyuJvPCOOAeOS8k_-4" value="keepctl&lt;br&gt;(Mac client)" style="ellipse;whiteSpace=wrap;html=1;fontSize=16;fillColor=#e1d5e7;strokeColor=#9673a6;rounded=1;" parent="1" vertex="1">
          <mxGeometry x="120" y="280" width="130" height="80" as="geometry" />
        </mxCell>
        <mxCell id="mEDoyyuJvPCOOAeOS8k_-5" value="keepctl&lt;br&gt;(Linux client)" style="ellipse;whiteSpace=wrap;html=1;fontSize=16;fillColor=#e1d5e7;strokeColor=#9673a6;rounded=1;" parent="1" vertex="1">
          <mxGeometry x="120" y="400" width="130" height="80" as="geometry" />
        </mxCell>
        <mxCell id="mEDoyyuJvPCOOAeOS8k_-6" value="" style="endArrow=classic;startArrow=classic;html=1;rounded=1;exitX=1;exitY=0.5;exitDx=0;exitDy=0;entryX=0;entryY=0.25;entryDx=0;entryDy=0;" parent="1" source="mEDoyyuJvPCOOAeOS8k_-3" target="mEDoyyuJvPCOOAeOS8k_-1" edge="1">
          <mxGeometry width="50" height="50" relative="1" as="geometry">
            <mxPoint x="330" y="370" as="sourcePoint" />
            <mxPoint x="380" y="320" as="targetPoint" />
          </mxGeometry>
        </mxCell>
        <mxCell id="mEDoyyuJvPCOOAeOS8k_-8" value="" style="endArrow=classic;startArrow=classic;html=1;rounded=1;exitX=1;exitY=0.5;exitDx=0;exitDy=0;entryX=0;entryY=0.5;entryDx=0;entryDy=0;" parent="1" source="mEDoyyuJvPCOOAeOS8k_-4" target="mEDoyyuJvPCOOAeOS8k_-1" edge="1">
          <mxGeometry width="50" height="50" relative="1" as="geometry">
            <mxPoint x="260" y="210" as="sourcePoint" />
            <mxPoint x="380" y="290" as="targetPoint" />
          </mxGeometry>
        </mxCell>
        <mxCell id="mEDoyyuJvPCOOAeOS8k_-9" value="" style="endArrow=classic;startArrow=classic;html=1;rounded=1;exitX=1;exitY=0.5;exitDx=0;exitDy=0;entryX=0;entryY=0.75;entryDx=0;entryDy=0;" parent="1" source="mEDoyyuJvPCOOAeOS8k_-5" target="mEDoyyuJvPCOOAeOS8k_-1" edge="1">
          <mxGeometry width="50" height="50" relative="1" as="geometry">
            <mxPoint x="260" y="330" as="sourcePoint" />
            <mxPoint x="380" y="330" as="targetPoint" />
          </mxGeometry>
        </mxCell>
        <mxCell id="mEDoyyuJvPCOOAeOS8k_-11" value="gRPC" style="text;html=1;strokeColor=none;fillColor=none;align=center;verticalAlign=middle;whiteSpace=wrap;rounded=1;" parent="1" vertex="1">
          <mxGeometry x="290" y="210" width="60" height="30" as="geometry" />
        </mxCell>
        <mxCell id="mEDoyyuJvPCOOAeOS8k_-12" value="gRPC" style="text;html=1;strokeColor=none;fillColor=none;align=center;verticalAlign=middle;whiteSpace=wrap;rounded=1;" parent="1" vertex="1">
          <mxGeometry x="290" y="290" width="60" height="30" as="geometry" />
        </mxCell>
        <mxCell id="mEDoyyuJvPCOOAeOS8k_-13" value="gRPC" style="text;html=1;strokeColor=none;fillColor=none;align=center;verticalAlign=middle;whiteSpace=wrap;rounded=1;" parent="1" vertex="1">
          <mxGeometry x="290" y="400" width="60" height="30" as="geometry" />
        </mxCell>
        <mxCell id="mEDoyyuJvPCOOAeOS8k_-14" value="" style="endArrow=classic;startArrow=classic;html=1;rounded=1;exitX=0;exitY=0.5;exitDx=0;exitDy=0;exitPerimeter=0;entryX=1;entryY=0.5;entryDx=0;entryDy=0;" parent="1" source="mEDoyyuJvPCOOAeOS8k_-2" target="mEDoyyuJvPCOOAeOS8k_-1" edge="1">
          <mxGeometry width="50" height="50" relative="1" as="geometry">
            <mxPoint x="330" y="370" as="sourcePoint" />
            <mxPoint x="380" y="320" as="targetPoint" />
          </mxGeometry>
        </mxCell>
        <mxCell id="mEDoyyuJvPCOOAeOS8k_-16" value="TCP" style="text;html=1;strokeColor=none;fillColor=none;align=center;verticalAlign=middle;whiteSpace=wrap;rounded=1;" parent="1" vertex="1">
          <mxGeometry x="560" y="290" width="60" height="30" as="geometry" />
        </mxCell>
      </root>
    </mxGraphModel>
  </diagram>
</mxfile>
